<?xml version="1.0" encoding="UTF-8"?>
<svg width="775px" height="589px" viewBox="0 0 775 589" version="1.1" xmlns="http://www.w3.org/2000/svg" xmlns:xlink="http://www.w3.org/1999/xlink">
    <!-- Generator: Sketch 58 (84663) - https://sketch.com -->
    <title>illustration</title>
    <desc>Created with Sketch.</desc>
    <defs>
        <linearGradient x1="25.2815405%" y1="28.880615%" x2="78.1267238%" y2="88.1085208%" id="linearGradient-1">
            <stop stop-color="#5A44FF" offset="0.0422297297%"></stop>
            <stop stop-color="#4738B4" offset="100%"></stop>
        </linearGradient>
        <linearGradient x1="58.4519803%" y1="12.0150273%" x2="58.4519803%" y2="100%" id="linearGradient-2">
            <stop stop-color="#5A44FF" offset="0.0422297297%"></stop>
            <stop stop-color="#4738B4" offset="100%"></stop>
        </linearGradient>
        <linearGradient x1="52.6472604%" y1="21.7841575%" x2="46.5158488%" y2="86.469848%" id="linearGradient-3">
            <stop stop-color="#5A44FF" offset="0.0422297297%"></stop>
            <stop stop-color="#4738B4" offset="100%"></stop>
        </linearGradient>
        <linearGradient x1="55.675034%" y1="99.9636383%" x2="31.5042538%" y2="13.8955414%" id="linearGradient-4">
            <stop stop-color="#5A44FF" offset="0.0422297297%"></stop>
            <stop stop-color="#4738B4" offset="100%"></stop>
        </linearGradient>
        <linearGradient x1="51.6719687%" y1="26.7189378%" x2="44.764188%" y2="94.7694528%" id="linearGradient-5">
            <stop stop-color="#4738B4" offset="0%"></stop>
            <stop stop-color="#5A44FF" offset="99.9577703%"></stop>
        </linearGradient>
        <linearGradient x1="58.8597429%" y1="0.0385676731%" x2="50%" y2="91.32825%" id="linearGradient-6">
            <stop stop-color="#5A44FF" offset="0.0422297297%"></stop>
            <stop stop-color="#4738B4" offset="100%"></stop>
        </linearGradient>
        <linearGradient x1="0.0373761241%" y1="64.9554951%" x2="88.5066618%" y2="36.7867226%" id="linearGradient-7">
            <stop stop-color="#5A44FF" offset="0.0422297297%"></stop>
            <stop stop-color="#4738B4" offset="100%"></stop>
        </linearGradient>
        <linearGradient x1="47.0799223%" y1="95.559426%" x2="51.1372361%" y2="11.8463446%" id="linearGradient-8">
            <stop stop-color="#5A44FF" offset="0.0422297297%"></stop>
            <stop stop-color="#4738B4" offset="100%"></stop>
        </linearGradient>
        <linearGradient x1="47.4330809%" y1="99.9366643%" x2="52.2404454%" y2="0%" id="linearGradient-9">
            <stop stop-color="#5A44FF" offset="0.0422297297%"></stop>
            <stop stop-color="#4738B4" offset="100%"></stop>
        </linearGradient>
        <linearGradient x1="34.7551103%" y1="30.4161412%" x2="64.2756891%" y2="69.8360656%" id="linearGradient-10">
            <stop stop-color="#000000" offset="1%"></stop>
            <stop stop-color="#000000" stop-opacity="0.69" offset="8%"></stop>
            <stop stop-color="#000000" stop-opacity="0.32" offset="21%"></stop>
            <stop stop-color="#000000" stop-opacity="0" offset="100%"></stop>
        </linearGradient>
        <linearGradient x1="51.9261001%" y1="92.4722573%" x2="48.7916756%" y2="22.0183436%" id="linearGradient-11">
            <stop stop-color="#5A44FF" offset="0.0422297297%"></stop>
            <stop stop-color="#4738B4" offset="100%"></stop>
        </linearGradient>
        <linearGradient x1="46.6713729%" y1="99.9378808%" x2="52.1627917%" y2="2.88069225%" id="linearGradient-12">
            <stop stop-color="#5A44FF" offset="0.0422297297%"></stop>
            <stop stop-color="#4738B4" offset="100%"></stop>
        </linearGradient>
        <linearGradient x1="9.21221924%" y1="23.2319475%" x2="85.4005076%" y2="76.8133357%" id="linearGradient-13">
            <stop stop-color="#5A44FF" offset="0.0422297297%"></stop>
            <stop stop-color="#4738B4" offset="100%"></stop>
        </linearGradient>
        <linearGradient x1="0.197007373%" y1="23.2649776%" x2="91.7286567%" y2="76.8369444%" id="linearGradient-14">
            <stop stop-color="#5A44FF" offset="0.0422297297%"></stop>
            <stop stop-color="#4738B4" offset="100%"></stop>
        </linearGradient>
        <linearGradient x1="0.0605296394%" y1="9.94837967%" x2="84.7878114%" y2="81.7748451%" id="linearGradient-15">
            <stop stop-color="#5A44FF" offset="0.0422297297%"></stop>
            <stop stop-color="#4738B4" offset="100%"></stop>
        </linearGradient>
        <linearGradient x1="84.7177736%" y1="99.9606794%" x2="21.9821318%" y2="6.88876222%" id="linearGradient-16">
            <stop stop-color="#5A44FF" offset="0.0422297297%"></stop>
            <stop stop-color="#4738B4" offset="100%"></stop>
        </linearGradient>
        <linearGradient x1="48.8504462%" y1="93.8332751%" x2="51.8764071%" y2="-8.90513329%" id="linearGradient-17">
            <stop stop-color="#FFFFFF" offset="0%"></stop>
            <stop stop-color="#FFFFFF" stop-opacity="0.69" offset="13%"></stop>
            <stop stop-color="#FFFFFF" stop-opacity="0.61" offset="15%"></stop>
            <stop stop-color="#FFFFFF" stop-opacity="0.47" offset="20%"></stop>
            <stop stop-color="#FFFFFF" stop-opacity="0.34" offset="25%"></stop>
            <stop stop-color="#FFFFFF" stop-opacity="0.23" offset="30%"></stop>
            <stop stop-color="#FFFFFF" stop-opacity="0.15" offset="36%"></stop>
            <stop stop-color="#FFFFFF" stop-opacity="0.08" offset="44%"></stop>
            <stop stop-color="#FFFFFF" stop-opacity="0.03" offset="52%"></stop>
            <stop stop-color="#FFFFFF" stop-opacity="0.01" offset="65%"></stop>
            <stop stop-color="#FFFFFF" stop-opacity="0" offset="100%"></stop>
        </linearGradient>
    </defs>
    <g id="Page-3" stroke="none" stroke-width="1" fill="none" fill-rule="evenodd">
        <g id="concept-page-7" transform="translate(-324.000000, -176.000000)" fill-rule="nonzero">
            <g id="illustration" transform="translate(324.000000, 176.000000)">
                <path d="M768.82,514.54 C757.34,537.82 731.44,549.96 706.68,557.74 C667.114637,570.126646 625.761274,575.83149 584.32,574.62 C533.2,573.1 482.8,561.04 431.68,559.68 C346.16,557.4 262.58,584.98 177.16,588.42 C132.3,590.16 83.46,583.5 51.38,552.08 C8.36,509.9 11.38,438.28 35.26,382.94 C59.14,327.6 99.48,280.94 125.38,226.46 C138.42,199.02 147.64,169.98 160.4,142.42 C179.68,100.9 207.54,62.64 244.82,36.06 C282.1,9.48 329.3,-4.54 374.48,2.9 C396.88,6.58 418.08,15.28 438.28,25.84 C443.8,28.72 449.24,31.74 454.62,34.84 C474.16,46.22 493.14,63.62 514.9,70.42 C541.02,78.42 570.3,75.58 597.02,83.76 C625.62,92.5 653.02,108.66 669.52,133.56 C707.94,191.32 677.18,271.56 700.94,336.72 C709.1,359.08 723.36,378.72 737.2,398.34 C752,419.28 766.34,440.34 772.38,465 C776.42,481.34 776.3,499.36 768.82,514.54 Z" id="Path" fill="#E0EAFA"></path>
                <path d="M239.98,484.66 C199.352453,487.669274 159.29986,496.028135 120.86,509.52 C118.12,510.48 114.86,512.1 114.86,515.02 C114.86,517.94 117.86,519.7 120.56,520.66 C132.22,524.82 144.88,524.98 157.26,525.08 C205.14,525.54 254.06,525.82 299.44,510.56 C303.44,509.2 308.34,506.46 307.82,502.2 C307.3,497.94 302.14,496.52 297.98,495.96 L228.04,486.42" id="Path" fill="#AFC2E0"></path>
                <path d="M271.46,280.26 C270.963437,280.694493 270.33824,280.954406 269.68,281 C265.68,281.36 259.14,275.88 256.88,274.1 L248.66,267.58 C243.4,263.42 238.46,256.62 243.66,250.38 C243.815387,250.18356 243.98235,249.996562 244.16,249.82 C244.663825,249.290636 245.243483,248.839042 245.88,248.48 C247.238541,247.708304 248.808833,247.392843 250.36,247.58 C253.92,248.02 256.64,250.98 258.86,253.86 C263.16,259.46 266.86,265.48 270.66,271.46 C271.572535,272.78745 272.249131,274.262429 272.66,275.82 C273.085993,277.408107 272.627994,279.102701 271.46,280.26 Z" id="Path" fill="#5A44FF"></path>
                <path d="M269.68,281 C265.68,281.36 259.14,275.88 256.88,274.1 L248.66,267.58 C243.4,263.42 238.46,256.62 243.66,250.38 C244.870526,249.816584 246.214177,249.601877 247.54,249.76 C251.14,250.2 253.84,253.16 256.04,256.04 C260.34,261.66 264.04,267.66 267.84,273.66 C268.763607,274.973833 269.441242,276.444301 269.84,278 C270.07945,278.99429 270.023848,280.036819 269.68,281 Z" id="Path" stroke="#FFFFFF" fill="url(#linearGradient-1)"></path>
                <path d="M249.34,232.42 C250.480453,233.491614 251.457523,234.724744 252.24,236.08 L256,242.08 C257.361228,243.854619 258.199419,245.974341 258.42,248.2 C258.458156,248.625197 258.329008,249.048514 258.06,249.38 C257.809179,249.591954 257.504615,249.730393 257.18,249.78 C253.019388,250.820878 248.74878,251.358061 244.46,251.38 C242.971854,251.395503 241.500248,251.066958 240.16,250.42 C238.00742,248.997032 236.488218,246.797055 235.92,244.28 C234.76,240.9 231.42,233.88 235.16,231.08 C238.54,228.64 246.32,229.8 249.34,232.42 Z" id="Path" fill="#FFFFFF"></path>
                <path d="M249.9,232.42 C251.040453,233.491614 252.017523,234.724744 252.8,236.08 L256.56,242.08 C257.921228,243.854619 258.759419,245.974341 258.98,248.2 C259.018156,248.625197 258.889008,249.048514 258.62,249.38 C258.369179,249.591954 258.064615,249.730393 257.74,249.78 C253.579388,250.820878 249.30878,251.358061 245.02,251.38 C243.557189,251.467749 242.093586,251.221535 240.74,250.66 C238.58742,249.237032 237.068218,247.037055 236.5,244.52 C235.34,241.14 232.02,234.12 235.74,231.32 C239.12,228.64 246.88,229.8 249.9,232.42 Z" id="Path" stroke="#FFFFFF" fill="url(#linearGradient-2)"></path>
                <path d="M204.44,194.74 C204.344093,198.276545 205.312597,201.760375 207.22,204.74 C207.712895,205.366002 208.14801,206.03541 208.52,206.74 C209.080918,208.410608 209.164041,210.204684 208.76,211.92 C208.14,216.1 207.44,220.54 204.62,223.7 C204.451307,223.866398 204.315591,224.063187 204.22,224.28 C204.04,224.84 204.54,225.4 204.98,225.8 C206.4,227.1 207.86,228.36 209.34,229.62 C210.856447,231.000632 212.551631,232.171116 214.38,233.1 C217.002794,234.278076 219.959385,234.48369 222.72,233.68 C223.118106,233.617092 223.468814,233.383287 223.68,233.04 C223.770506,232.753648 223.770506,232.446352 223.68,232.16 C222.923565,228.498288 222.356148,224.80006 221.98,221.08 C221.869953,220.290483 221.869953,219.489517 221.98,218.7 C222.156305,218.014722 222.39048,217.345652 222.68,216.7 C223.357397,214.71056 223.761096,212.638238 223.88,210.54 C224.324171,206.200462 223.978592,201.816353 222.86,197.6 C221.73836,193.350751 219.411513,189.516663 216.16,186.56 C213.88,184.56 209.56,182.36 206.72,184.68 C205.894819,185.596772 205.383391,186.752739 205.26,187.98 C204.728222,190.194411 204.453078,192.46267 204.44,194.74 L204.44,194.74 Z" id="Path" fill="#FFFFFF"></path>
                <path d="M204.44,194.74 C204.344093,198.276545 205.312597,201.760375 207.22,204.74 C207.712895,205.366002 208.14801,206.03541 208.52,206.74 C209.080918,208.410608 209.164041,210.204684 208.76,211.92 C208.14,216.1 207.44,220.54 204.62,223.7 C204.451307,223.866398 204.315591,224.063187 204.22,224.28 C204.04,224.84 204.54,225.4 204.98,225.8 C206.4,227.1 207.86,228.36 209.34,229.62 C210.856447,231.000632 212.551631,232.171116 214.38,233.1 C217.002794,234.278076 219.959385,234.48369 222.72,233.68 C223.118106,233.617092 223.468814,233.383287 223.68,233.04 C223.770506,232.753648 223.770506,232.446352 223.68,232.16 C222.923565,228.498288 222.356148,224.80006 221.98,221.08 C221.869953,220.290483 221.869953,219.489517 221.98,218.7 C222.156305,218.014722 222.39048,217.345652 222.68,216.7 C223.357397,214.71056 223.761096,212.638238 223.88,210.54 C224.324171,206.200462 223.978592,201.816353 222.86,197.6 C221.73836,193.350751 219.411513,189.516663 216.16,186.56 C213.88,184.56 209.56,182.36 206.72,184.68 C205.894819,185.596772 205.383391,186.752739 205.26,187.98 C204.728222,190.194411 204.453078,192.46267 204.44,194.74 L204.44,194.74 Z" id="Path" stroke="#FFFFFF" fill="url(#linearGradient-3)"></path>
                <path d="M201.86,181.14 C201.927282,179.59327 202.395978,178.090683 203.22,176.78 L205.68,172.08 C206.246138,170.889636 206.958282,169.774391 207.8,168.76 C209.328454,167.198482 211.29535,166.138311 213.44,165.72 C216.682637,165.10281 219.999422,164.974723 223.28,165.34 C225.04092,165.405359 226.790297,165.653355 228.5,166.08 C233.43316,167.794015 237.304755,171.680359 239,176.62 C240.607448,181.511009 241.285781,186.659554 241,191.8 C241.026686,194.369628 240.852825,196.937422 240.48,199.48 C239.697042,203.495916 238.350389,207.381009 236.48,211.02 C235.675355,212.884859 234.604178,214.622993 233.3,216.18 C231.869333,218.046369 229.651625,219.140696 227.3,219.140696 C224.948375,219.140696 222.730667,218.046369 221.3,216.18 C219.647591,214.267424 218.341359,212.081346 217.44,209.72 C216.209333,207.348189 215.525916,204.730702 215.44,202.06 C215.678565,200.538857 215.778974,198.999244 215.74,197.46 C215.341692,195.680832 214.502664,194.030286 213.3,192.66 C212.178649,190.910221 210.748771,189.378692 209.08,188.14 C207.545986,187.176354 206.100338,186.078732 204.76,184.86 C203.7,183.74 201.94,183.24 201.86,181.14 Z" id="Path" stroke="#FFFFFF" fill="#5A44FF"></path>
                <path d="M247.96,291.62 C248.413406,295.650629 248.05295,299.731266 246.9,303.62 C246.767422,304.100967 246.496138,304.53224 246.12,304.86 C245.548947,305.180678 244.889124,305.307028 244.24,305.22 C239.922145,305.106032 235.602036,305.333406 231.32,305.9 C228.78,306.24 226.26,306.7 223.72,307.08 C222.16,307.32 220.6,307.52 219.04,307.64 C214.056671,308.017036 209.045167,307.584777 204.2,306.36 C203.678311,306.258963 203.181982,306.054992 202.74,305.76 C202.188124,305.292397 201.761874,304.694272 201.5,304.02 L191.5,283.5 C189.612976,279.822454 187.962945,276.028052 186.56,272.14 C185.216402,268.192516 184.409184,264.082427 184.16,259.92 C184.013101,257.459732 184.066611,254.99159 184.32,252.54 C184.178661,251.377531 184.553823,250.211509 185.34651,249.349558 C186.139197,248.487608 187.269785,248.016308 188.44,248.06 C190.788143,247.813925 193.114618,247.392753 195.4,246.8 C197.709465,246.201937 199.683124,244.703685 200.88,242.64 C202.38,239.74 201.44,236.18 200.1,233.2 C199.305602,231.128144 197.973176,229.305552 196.24,227.92 C195.18,227.18 193.74,226.16 194.24,225 C194.407859,224.669976 194.664037,224.393028 194.98,224.2 C199.14,221.28 203.36,223.06 206.7,226 C210.595077,229.245497 215.678257,230.697834 220.7,230 C223.56,229.64 222.38,226.86 222.22,224.66 C224.56,225.32 226.86,226.1 229.14,226.94 C231.308252,227.637099 233.338572,228.706401 235.14,230.1 C236.67338,231.573227 237.980815,233.264805 239.02,235.12 C240.16,236.92 241.28,238.72 242.28,240.58 C250.68,256.42 247.5,274.42 247.96,291.62 Z" id="Path" stroke="#FFFFFF" fill="#5A44FF"></path>
                <path d="M223.72,307.02 C222.16,307.26 220.6,307.46 219.04,307.58 C214.056671,307.957036 209.045167,307.524777 204.2,306.3 C203.678311,306.198963 203.181982,305.994992 202.74,305.7 C202.188124,305.232397 201.761874,304.634272 201.5,303.96 L191.5,283.44 C189.612976,279.762454 187.962945,275.968052 186.56,272.08 C185.221652,268.151739 184.414502,264.062178 184.16,259.92 C185.862932,258.641689 187.896553,257.878213 190.02,257.72 C193.14459,257.395142 196.223451,256.724366 199.2,255.72 C200.32,255.32 209.2,252.06 209.2,250.8 C209.8,255.08 205.64,258.36 202.06,260.8 C200.944608,261.403773 200.038173,262.331126 199.46,263.46 C199.111096,264.648251 199.111096,265.911749 199.46,267.1 C201.362887,275.884714 203.726146,284.56335 206.54,293.1 C207.198243,295.704496 208.427981,298.129813 210.14,300.2 C213.72,303.94 219.46,304.26 223.72,307.02 Z" id="Path" stroke="#FFFFFF" fill="url(#linearGradient-4)"></path>
                <path d="M176.72,297.5 C176.003181,299.430234 174.908485,301.198067 173.5,302.7 C172.041278,304.219282 169.838774,304.764071 167.84,304.1 C167.28475,303.852327 166.787437,303.491264 166.38,303.04 C164.998605,301.024932 164.355683,298.594544 164.56,296.16 C164.611443,283.697102 166.210344,271.288824 169.32,259.22 C170.14,256.04 170.74,250.38 173.92,248.56 C175.422801,248.14649 176.988491,248.010933 178.54,248.16 C182.54,248.3 187.72,249.14 187.84,250.44 C189.44,266.68 183.38,282.62 176.72,297.5 Z" id="Path" fill="#5A44FF"></path>
                <path d="M170.92,296.88 C170.211098,298.814097 169.115471,300.583433 167.7,302.08 C167.304378,302.456952 166.860508,302.779766 166.38,303.04 C164.998605,301.024932 164.355683,298.594544 164.56,296.16 C164.611443,283.697102 166.210344,271.288824 169.32,259.22 C170.14,256.04 170.74,250.38 173.92,248.56 C175.422801,248.14649 176.988491,248.010933 178.54,248.16 C180.54,248.58 181.96,249.12 182.04,249.82 C183.66,266.06 177.62,282 170.92,296.88 Z" id="Path" stroke="#FFFFFF" fill="url(#linearGradient-5)"></path>
                <path d="M188.78,226.42 C184.985126,228.394176 182.202483,231.881561 181.12,236.02 C179.731146,240.128161 180.190744,244.636598 182.38,248.38 C185.66876,253.130755 191.902495,254.820114 197.14,252.38 C198.015394,251.931863 198.834464,251.38134 199.58,250.74 C204.303895,246.517505 205.636716,239.665334 202.84,233.98 C199.88,228.22 196.16,223 188.78,226.42 Z" id="Path" fill="#FFFFFF"></path>
                <path d="M188.78,226.42 C184.985126,228.394176 182.202483,231.881561 181.12,236.02 C179.731146,240.128161 180.190744,244.636598 182.38,248.38 C185.66876,253.130755 191.902495,254.820114 197.14,252.38 C198.015394,251.931863 198.834464,251.38134 199.58,250.74 C204.303895,246.517505 205.636716,239.665334 202.84,233.98 C199.88,228.22 196.16,223 188.78,226.42 Z" id="Path" stroke="#FFFFFF" fill="url(#linearGradient-6)"></path>
                <path d="M188.5,256.42 C190.511906,255.840633 192.143294,254.364263 192.92,252.42 C194.515532,249.683368 195.733256,246.743339 196.54,243.68 C197.335482,240.580327 196.822038,237.28995 195.12,234.58 C193.174626,232.288577 190.675397,230.53292 187.86,229.48 C185.775518,228.344389 183.495767,227.611612 181.14,227.32 C176.258918,227.333866 171.891984,230.356516 170.16,234.92 C168.574663,239.452026 168.574663,244.387974 170.16,248.92 C171.75356,253.408424 173.616958,257.796425 175.74,262.06 C176.72,264.28 181.02,260.06 181.56,259.64 C183.698539,258.224305 186.038115,257.138795 188.5,256.42 L188.5,256.42 Z" id="Path" stroke="#FFFFFF" fill="#5A44FF"></path>
                <path d="M175.84,300.68 C174.099778,300.297406 172.305944,300.222945 170.54,300.46 C168.784536,300.715602 167.205874,301.667124 166.16,303.1 C165.591186,303.953214 165.285214,304.954574 165.28,305.98 C165.240206,306.89573 165.632707,307.777006 166.34,308.36 C166.858704,308.671944 167.454828,308.831373 168.06,308.82 C170.084878,308.958512 172.08671,308.322215 173.66,307.04 C175.238022,305.720684 175.921881,303.614709 175.42,301.62" id="Path" stroke="#FFFFFF" fill="#5A44FF"></path>
                <path d="M311.2,258.94 C311.151823,259.176215 311.091746,259.409846 311.02,259.64 C309.258955,264.265653 306.297404,268.338649 302.44,271.44 C296.682489,276.732122 290.254047,281.244136 283.32,284.86 C278.24,287.52 271.2,289.8 266.96,284.56 L266.62,284.12 C262.78,278.86 267.92,274.76 272.16,271.98 C282.64,265.06 295.24,262.5 306.06,256.24 C307.38,255.48 309.1,254.66 310.36,255.52 C311.289189,256.395034 311.618072,257.73406 311.2,258.94 Z" id="Path" fill="#5A44FF"></path>
                <path d="M311.2,258.94 C311.151823,259.176215 311.091746,259.409846 311.02,259.64 C309.258955,264.265653 306.297404,268.338649 302.44,271.44 C296.682489,276.732122 290.254047,281.244136 283.32,284.86 C278.24,287.52 271.2,289.8 266.96,284.56 C266.72,280.86 270.58,277.9 273.86,275.72 C284.32,268.8 296.92,266.24 307.86,260 C308.82932,259.294595 310.001303,258.922649 311.2,258.94 Z" id="Path" stroke="#FFFFFF" fill="url(#linearGradient-7)"></path>
                <path d="M310.16,249.08 C310.78,245.36 311.98,241.3 315.22,239.38 C315.58,239.14 316.12,239.38 316.28,239.84 C316.400243,240.273434 316.357554,240.735901 316.16,241.14 C315.7,242.42 314.88,243.52 314.34,244.78 C313.688142,245.990068 313.651012,247.438116 314.24,248.68 C318.717288,246.118942 322.082066,241.984257 323.68,237.08 C323.828663,236.430676 324.107633,235.818303 324.5,235.28 C324.912068,234.741663 325.63722,234.552135 326.26,234.82 C325.820208,239.090444 324.72046,243.266791 323,247.2 L329.8,238.18 C329.727632,242.235984 328.491992,246.185867 326.24,249.56 C328.355673,247.412508 330.295255,245.098386 332.04,242.64 C332.84,246.98 329.8,250.98 326.94,254.36 C328.488092,252.786498 330.277228,251.469963 332.24,250.46 C328.68,257.86 320.5,262.32 312.84,264.34 C309.44,265.24 306.2,264.9 307.02,260.78 C307.84,256.66 309.52,253.14 310.16,249.08 Z" id="Path" fill="#5A44FF"></path>
                <path d="M225.16,351.52 C222.736034,366.981074 218.714506,382.148941 213.16,396.78 C212.249804,399.886569 210.688515,402.763704 208.58,405.22 C208.024189,405.794746 207.39945,406.298567 206.72,406.72 C204.688992,408.113463 202.105409,408.427077 199.8,407.56 C195.98,405.88 194.96,401.06 194.58,396.94 C193.095649,381.310966 193.38415,365.564174 195.44,350 C196.34,343.34 197.26,331.34 202.98,326.7 C206.121201,324.587475 210.083163,324.104309 213.64,325.4 C216.680894,326.196746 219.446843,327.807911 221.64,330.06 C226.52,335.68 226.16,344.1 225.16,351.52 Z" id="Path" fill="#5A44FF"></path>
                <path d="M225.16,351.52 C222.736034,366.981074 218.714506,382.148941 213.16,396.78 C212.249804,399.886569 210.688515,402.763704 208.58,405.22 C208.024189,405.794746 207.39945,406.298567 206.72,406.72 C204.04,404.6 203.22,400.5 202.88,396.94 C201.392286,381.310591 201.687518,365.562665 203.76,350 C204.64,343.34 205.56,331.34 211.3,326.7 C212.000151,326.136384 212.791567,325.696708 213.64,325.4 C216.680894,326.196746 219.446843,327.807911 221.64,330.06 C226.52,335.68 226.16,344.1 225.16,351.52 Z" id="Path" stroke="#FFFFFF" fill="url(#linearGradient-8)"></path>
                <path d="M201.96,400.82 C200.533201,400.984009 199.163941,401.476942 197.96,402.26 C196.760414,402.918692 195.732704,403.850482 194.96,404.98 C193.523579,407.551013 194.027123,410.770391 196.18,412.78 C198.369694,414.704568 201.423051,415.307606 204.18,414.36 C204.788511,414.174147 205.362693,413.890434 205.88,413.52 C207.25694,412.271428 208.041575,410.498734 208.04,408.64 C208.26,405.04 206.16,400.58 201.96,400.82 Z" id="Path" stroke="#FFFFFF" fill="#5A44FF"></path>
                <path d="M206.54,420.96 C205.88,436.52 200.96,451.56 196.12,466.34 L190.84,482.34 C190.270178,484.78289 189.054467,487.02781 187.32,488.84 C185.624468,490.417961 183.067152,490.624864 181.14,489.34 C180.945025,489.212371 180.775477,489.049606 180.64,488.86 C182.44,470.54 184.28,452.193333 186.16,433.82 C186.41991,428.914456 187.383078,424.071674 189.02,419.44 C190.81697,415.526174 193.787742,412.26881 197.52,410.12 C200.48,408.66 203.52,409 205.52,413.26 C206.480164,415.705774 206.830251,418.348587 206.54,420.96 L206.54,420.96 Z" id="Path" fill="#5A44FF"></path>
                <path d="M201.02,420.96 C200.38,436.52 195.46,451.56 190.62,466.34 C188.86,471.673333 187.093333,477.006667 185.32,482.34 C184.763373,484.783598 183.553668,487.030193 181.82,488.84 C181.610444,489.028766 181.382659,489.196254 181.14,489.34 C180.945025,489.212371 180.775477,489.049606 180.64,488.86 C182.44,470.54 184.28,452.193333 186.16,433.82 C186.41991,428.914456 187.383078,424.071674 189.02,419.44 C190.81697,415.526174 193.787742,412.26881 197.52,410.12 C198.628144,410.914842 199.493664,412.001935 200.02,413.26 C200.974168,415.707252 201.317409,418.350206 201.02,420.96 Z" id="Path" stroke="#FFFFFF" fill="url(#linearGradient-9)"></path>
                <path d="M252.5,413.7 C251.86,429.26 246.96,444.3 242.1,459.08 C240.34,464.413333 238.573333,469.746667 236.8,475.08 C236.243373,477.523598 235.033668,479.770193 233.3,481.58 C233.090444,481.768766 232.862659,481.936254 232.62,482.08 C232.429439,481.946911 232.260753,481.784972 232.12,481.6 L237.58,426.48 C237.836869,421.572278 238.807049,416.728118 240.46,412.1 C242.244514,408.177941 245.2184,404.917163 248.96,402.78 C250.062422,403.580841 250.926536,404.666167 251.46,405.92 C252.430525,408.391122 252.787388,411.060725 252.5,413.7 Z" id="Path" fill="url(#linearGradient-10)"></path>
                <path d="M188.54,488.58 C187.636665,487.655743 186.482548,487.016111 185.22,486.74 C183.835228,486.697602 182.478452,487.135728 181.38,487.98 C179.890444,488.720411 178.738995,490.000594 178.16,491.56 C178.000354,492.517966 178.041215,493.498636 178.28,494.44 L179.5,501.4 C179.541042,502.11014 179.831435,502.783001 180.32,503.3 C180.728763,503.586982 181.203496,503.765867 181.7,503.82 L188.16,505.06 C191.133915,505.764279 194.184298,506.093505 197.24,506.04 C198.280307,506.047961 199.300926,505.756355 200.18,505.2 C200.978367,504.503836 201.52054,503.560313 201.72,502.52 C202.037731,501.64117 202.037731,500.67883 201.72,499.8 C200.82,497.8 199.28,499.26 198.02,498.6 C197.08,498.1 196.4,495.98 195.74,495.1 C193.587982,492.667604 191.173272,490.48095 188.54,488.58 L188.54,488.58 Z" id="Path" fill="#5A44FF"></path>
                <path d="M240.16,481.28 C239.252361,480.346918 238.09118,479.700272 236.82,479.42 C235.44203,479.382242 234.093083,479.82012 233,480.66 C231.505421,481.393783 230.351874,482.676298 229.78,484.24 C229.580961,485.189683 229.580961,486.170317 229.78,487.12 L231,494.1 C231.043971,494.803543 231.334282,495.469134 231.82,495.98 C232.232197,496.260428 232.705242,496.438677 233.2,496.5 L239.66,497.74 C242.634092,498.443246 245.684345,498.772458 248.74,498.72 C249.781084,498.733726 250.803312,498.44166 251.68,497.88 C252.485808,497.189976 253.029592,496.24365 253.22,495.2 C253.505651,494.30952 253.470268,493.347101 253.12,492.48 C252.22,490.48 250.7,491.94 249.42,491.28 C248.48,490.78 247.8,488.66 247.14,487.78 C245.06253,485.360277 242.721357,483.180102 240.16,481.28 L240.16,481.28 Z" id="Path" fill="#5A44FF"></path>
                <path d="M259.74,392.72 C259.603576,395.949649 258.80005,399.116088 257.38,402.02 C255.853719,404.976716 252.695475,406.721646 249.38,406.44 C248.969739,406.366638 248.567769,406.252747 248.18,406.1 C244.86,404.84 243,400.9 241.76,397.42 C236.46147,382.639109 232.877993,367.298602 231.08,351.7 C230.3,345.04 228.24,333.18 232.66,327.26 C233.59592,326.035345 234.847224,325.088226 236.28,324.52 C241.301793,322.644817 246.906963,323.183208 251.48,325.98 C257.7,330.18 259.48,338.42 260.28,345.88 C261.720205,361.469999 261.539237,377.167347 259.74,392.72 L259.74,392.72 Z" id="Path" fill="#5A44FF"></path>
                <path d="M253.2,393.82 C253.07097,397.057119 252.267135,400.231586 250.84,403.14 C250.166458,404.293036 249.268805,405.299496 248.2,406.1 C244.88,404.84 243.02,400.9 241.78,397.42 C236.48147,382.639109 232.897993,367.298602 231.1,351.7 C230.32,345.04 228.26,333.18 232.68,327.26 C233.61592,326.035345 234.867224,325.088226 236.3,324.52 C239.364212,324.579965 242.355687,325.464281 244.96,327.08 C251.18,331.3 252.96,339.54 253.78,347.08 C255.191299,362.638616 254.996941,378.301196 253.2,393.82 L253.2,393.82 Z" id="Path" stroke="#FFFFFF" fill="url(#linearGradient-11)"></path>
                <path d="M253.46,393.5 C252.033201,393.664009 250.663941,394.156942 249.46,394.94 C248.264699,395.604686 247.238251,396.535332 246.46,397.66 C245.038461,400.233658 245.540486,403.443327 247.68,405.46 C249.869694,407.384568 252.923051,407.987606 255.68,407.04 C256.298025,406.862688 256.880172,406.578383 257.4,406.2 C258.77694,404.951428 259.561575,403.178734 259.56,401.32 C259.76,397.72 257.66,393.26 253.46,393.5 Z" id="Path" stroke="#FFFFFF" fill="#5A44FF"></path>
                <path d="M240.48,412.14 C238.817531,416.75857 237.847038,421.597555 237.6,426.5 L232.16,481.64 C234.025675,483.433108 236.974325,483.433108 238.84,481.64 C240.571349,479.833387 241.786851,477.595758 242.36,475.16 L247.64,459.16 C252.5,444.36 257.42,429.32 258.04,413.76 C258.323041,411.153518 257.966058,408.517334 257,406.08 C252.46,396.42 242.8,406.58 240.48,412.14 Z" id="Path" fill="#5A44FF"></path>
                <path d="M252.5,413.7 C251.86,429.26 246.96,444.3 242.1,459.08 C240.34,464.413333 238.573333,469.746667 236.8,475.08 C236.243373,477.523598 235.033668,479.770193 233.3,481.58 C233.090444,481.768766 232.862659,481.936254 232.62,482.08 C232.429439,481.946911 232.260753,481.784972 232.12,481.6 L237.58,426.48 C237.836869,421.572278 238.807049,416.728118 240.46,412.1 C242.244514,408.177941 245.2184,404.917163 248.96,402.78 C250.062422,403.580841 250.926536,404.666167 251.46,405.92 C252.430525,408.391122 252.787388,411.060725 252.5,413.7 Z" id="Path" stroke="#FFFFFF" fill="url(#linearGradient-12)"></path>
                <path d="M191.14,500.88 C190.905041,500.852934 190.668684,500.917395 190.48,501.06 C190.26,501.26 190.28,501.62 190.12,501.88 C189.96,502.14 189.3,502.26 188.82,502.2 C187.443391,502.085938 186.093431,501.755198 184.82,501.22 C183.559898,500.673184 182.597454,499.608662 182.18,498.3 C181.6,496.08 183.14,493.38 181.72,491.58 C181.153877,490.949882 180.318039,490.632348 179.476336,490.727635 C178.634633,490.822922 177.890933,491.319272 177.48,492.06 C177.175933,492.891499 177.099971,493.789231 177.26,494.66 C177.473333,496.753333 177.733333,498.853333 178.04,500.96 C178.025516,501.434925 178.21772,501.892788 178.566858,502.21507 C178.915997,502.537352 179.387749,502.692371 179.86,502.64 L191.68,504.82 C192.60307,505.040166 193.55795,505.094344 194.5,504.98 C195.96,504.72 197.66,502.84 196.16,501.5 C195.22,500.62 192.36,500.86 191.14,500.88 Z" id="Path" stroke="#FFFFFF" fill="url(#linearGradient-13)"></path>
                <path d="M243.46,493.7 C243.225041,493.672934 242.988684,493.737395 242.8,493.88 C242.58,494.1 242.6,494.46 242.44,494.7 C242.28,494.94 241.6,495.08 241.14,495.02 C239.76177,494.916004 238.410215,494.584873 237.14,494.04 C235.876744,493.497588 234.912755,492.431358 234.5,491.12 C233.92,488.9 235.46,486.2 234.04,484.4 C233.469531,483.778364 232.6363,483.466841 231.797934,483.561751 C230.959568,483.65666 230.217065,484.146568 229.8,484.88 C229.495933,485.711499 229.419971,486.609231 229.58,487.48 C229.8,489.58 230.04,491.68 230.34,493.78 C230.366621,494.118472 230.46916,494.446597 230.64,494.74 C231.042893,495.17035 231.59226,495.434331 232.18,495.48 L244,497.64 C244.914849,497.868316 245.863448,497.929298 246.8,497.82 C248.28,497.56 249.98,495.66 248.46,494.34 C247.54,493.44 244.68,493.68 243.46,493.7 Z" id="Path" stroke="#FFFFFF" fill="url(#linearGradient-14)"></path>
                <path d="M206.9,336.42 C208.04,337.44 209.34,338.8 208.9,340.28 C208.46,341.76 206.68,342.16 205.18,342.28 C200.245193,342.022065 195.465143,340.470101 191.32,337.78 C184.524519,333.934146 178.252886,329.228741 172.66,323.78 C168.44,319.64 164,313.42 168.2,307.64 C172.04,302.38 177.54,306.02 181.48,309.18 C191.28,316.74 197.6,327.94 206.9,336.42 Z" id="Path" fill="#FFFFFF"></path>
                <path d="M208.88,340.16 C208.46,341.56 206.76,342.04 205.3,342.16 L205.3,342.16 C200.357331,341.894883 195.570985,340.336217 191.42,337.64 C184.623542,333.79564 178.351725,329.090097 172.76,323.64 C168.56,319.54 164.16,313.38 168.26,307.64 L168.26,307.54 C172.1,302.28 177.58,305.92 181.54,309.08 C191.34,316.9 197.66,328.12 206.92,336.48 C208.04,337.34 209.34,338.7 208.88,340.16 Z" id="Path" fill="#5A44FF"></path>
                <path d="M205.3,342.08 L205.3,342.08 C200.357331,341.814883 195.570985,340.256217 191.42,337.56 C184.623542,333.71564 178.351725,329.010097 172.76,323.56 C168.56,319.46 164.16,313.3 168.26,307.56 C171.48,306.86 175.1,309.38 177.94,311.56 C187.74,319.4 193.94,330.6 203.34,338.98 C204.344098,339.744715 205.03975,340.844981 205.3,342.08 L205.3,342.08 Z" id="Path" stroke="#FFFFFF" fill="url(#linearGradient-15)"></path>
                <path d="M201.08,320.9 C200.7336,323.151497 201.795635,325.386526 203.76,326.54 C210.48,331.74 219.38,334.54 224.16,341.48 C225.004939,343.073574 226.1611,344.48137 227.56,345.62 C229.204624,346.445168 231.048001,346.791668 232.88,346.62 C234.836132,346.860511 236.806195,346.297636 238.34,345.06 C238.907135,344.379263 239.329109,343.589764 239.58,342.74 C243.303484,332.886915 245.377939,322.487612 245.72,311.96 C245.72,309.68 245.52,306.96 243.52,305.96 C242.399423,305.502127 241.172227,305.370394 239.98,305.58 L213.08,307.78 C209.92,308.04 205.46,307.4 203.34,309.78 C201.22,312.16 201.08,318.2 201.08,320.9 Z" id="Path" fill="#5A44FF"></path>
                <path d="M218.6,310.42 C217.52,311.86 216.38,313.26 215.2,314.62 C220.92,316.06 224.72,321.46 227.2,326.82 C229.720918,331.941042 231.086415,337.553233 231.2,343.26 C231.22217,343.615974 231.160518,343.972184 231.02,344.3 C230.59215,344.963628 229.763687,345.245305 229.02,344.98 C228.302382,344.69573 227.659311,344.251052 227.14,343.68 C221.081121,338.016466 214.535908,332.896744 207.58,328.38 C206.449564,327.720635 205.402114,326.928333 204.46,326.02 C203.418258,324.881127 202.66395,323.509658 202.26,322.02 C201.3,318.74 201.74,312.8 205.1,310.82 C208.46,308.84 215.04,310.42 218.6,310.42 Z" id="Path" stroke="#FFFFFF" fill="url(#linearGradient-16)"></path>
                <path d="M214.86,336.06 C218.58,335.52 222.86,335.4 225.64,337.88 C225.784561,338.046971 225.853664,338.266276 225.830938,338.485959 C225.808212,338.705642 225.69568,338.906157 225.52,339.04 C225.150241,339.289405 224.702478,339.396015 224.26,339.34 C222.9,339.34 221.58,338.86 220.26,338.72 C218.903058,338.467955 217.507134,338.876338 216.5,339.82 C220.329227,343.306492 225.321332,345.23915 230.5,345.24 C231.174717,345.172422 231.856105,345.247374 232.5,345.46 C233.142185,345.677751 233.55424,346.304074 233.5,346.98 C229.297036,347.885362 224.979296,348.134982 220.7,347.72 L231.4,351.38 C227.497868,352.587179 223.329234,352.635813 219.4,351.52 C222.103873,352.856887 224.905239,353.986794 227.78,354.9 C223.9,356.9 219.14,355.34 215.06,353.66 C217.030935,354.641219 218.828016,355.938359 220.38,357.5 C212.26,356.38 205.5,349.98 201.22,343.32 C199.22,340.36 198.64,337.18 202.8,336.68 C206.96,336.18 210.78,336.68 214.86,336.06 Z" id="Path" fill="#5A44FF"></path>
                <path d="M227.52,191.28 C226.417983,191.048197 225.271745,191.360807 224.44,192.12 C224.068177,192.826515 223.968546,193.644912 224.16,194.42 C224.16,195.32 224.34,196.2 224.48,197.08 C224.506537,197.256882 224.567705,197.426791 224.66,197.58 C224.84087,197.761962 225.08367,197.86908 225.34,197.88 C230.203903,198.841852 235.173433,199.157911 240.12,198.82 C240.49344,198.835286 240.862824,198.737713 241.18,198.54 C241.513395,198.173203 241.698706,197.695672 241.7,197.2 C241.83013,195.409027 241.83013,193.610973 241.7,191.82 C241.7,190.56 240.58,191.08 239.7,191.18 C238.36,191.34 236.98,191.36 235.7,191.4 C232.96,191.42 230.16,191.4 227.52,191.28 Z" id="Path" fill="#FFFFFF"></path>
                <ellipse id="Oval" fill="#AFC2E0" cx="534.04" cy="512.54" rx="171.46" ry="49.54"></ellipse>
                <ellipse id="Oval" fill="#D0DEF4" cx="534.04" cy="487.3" rx="154.14" ry="36.36"></ellipse>
                <g id="Group-3" transform="translate(401.000000, 371.000000)">
                    <path d="M26,5 C12.2,5 1,16.2 1,30 C1,43.8 12.2,55 26,55 C39.8,55 51,43.8 51,30 C51,16.2 39.8,5 26,5 Z" id="Shape" fill="#D0DEF4"></path>
                    <path d="M25,0 C11.2,0 0,11.2 0,25 C0,38.8 11.2,50 25,50 C38.8,50 50,38.8 50,25 C50,11.2 38.8,0 25,0 Z" id="Path" fill="#AFC2E0"></path>
                    <path d="M34.6,31.1 C35.6,32.1 35.6,33.6 34.6,34.6 C34.1,35.1 33.5,35.3 32.8,35.3 C32.2,35.3 31.5,35.1 31,34.6 L24.9,28.5 L18.8,34.6 C18.3,35.1 17.7,35.3 17,35.3 C16.3,35.3 15.7,35.1 15.2,34.6 C14.2,33.6 14.2,32.1 15.2,31.1 L21.3,25 L15.2,18.9 C14.2,17.9 14.2,16.4 15.2,15.4 C16.2,14.4 17.7,14.4 18.7,15.4 L24.8,21.5 L30.9,15.4 C31.9,14.4 33.4,14.4 34.4,15.4 C35.4,16.4 35.4,17.9 34.4,18.9 L28.3,25 L34.6,31.1 Z" id="Path" fill="#FFFFFF"></path>
                </g>
                <g id="Group-3" transform="translate(407.000000, 243.000000)">
                    <path d="M33.8,6.49999976 C15.8599994,6.49999976 1.29999995,21.0599992 1.29999995,38.9999998 C1.29999995,56.9399979 15.8599994,71.4999998 33.8,71.4999998 C51.7399981,71.4999998 66.3,56.9399979 66.3,38.9999998 C66.3,21.0599992 51.7399981,6.49999976 33.8,6.49999976 Z" id="Shape" fill="#D0DEF4"></path>
                    <path d="M32.5,0 C14.5599995,0 0,14.5599995 0,32.5 C0,50.4399981 14.5599995,65 32.5,65 C50.4399981,65 65,50.4399981 65,32.5 C65,14.5599995 50.4399981,0 32.5,0 Z" id="Path" fill="#AFC2E0"></path>
                    <path d="M44.9799984,40.4299985 C46.2799983,41.7299985 46.2799983,43.6799984 44.9799984,44.9799984 C44.3299984,45.6299983 43.5499984,45.8899983 42.6399984,45.8899983 C41.8599985,45.8899983 40.9499985,45.6299983 40.2999985,44.9799984 L32.3699988,37.0499986 L24.4399991,44.9799984 C23.7899991,45.6299983 23.0099992,45.8899983 22.0999992,45.8899983 C21.1899992,45.8899983 20.4099993,45.6299983 19.7599993,44.9799984 C18.4599993,43.6799984 18.4599993,41.7299985 19.7599993,40.4299985 L27.689999,32.4999988 L19.7599993,24.5699991 C18.4599993,23.2699991 18.4599993,21.3199992 19.7599993,20.0199993 C21.0599992,18.7199993 23.0099992,18.7199993 24.3099991,20.0199993 L32.2399988,27.949999 L40.1699985,20.0199993 C41.4699985,18.7199993 43.4199984,18.7199993 44.7199984,20.0199993 C46.0199983,21.3199992 46.0199983,23.2699991 44.7199984,24.5699991 L36.7899987,32.4999988 L44.9799984,40.4299985 Z" id="Path" fill="#FFFFFF"></path>
                </g>
                <g id="Group-3" transform="translate(511.000000, 370.000000)">
                    <path d="M20.2799999,3.89999962 C9.51599908,3.89999962 0.779999925,12.6359988 0.779999925,23.3999996 C0.779999925,34.1639967 9.51599908,42.8999996 20.2799999,42.8999996 C31.043997,42.8999996 39.7799999,34.1639967 39.7799999,23.3999996 C39.7799999,12.6359988 31.043997,3.89999962 20.2799999,3.89999962 Z" id="Shape" fill="#D0DEF4"></path>
                    <path d="M19.5,0 C8.73599916,0 0,8.73599916 0,19.5 C0,30.2639971 8.73599916,39 19.5,39 C30.2639971,39 39,30.2639971 39,19.5 C39,8.73599916 30.2639971,0 19.5,0 Z" id="Path" fill="#AFC2E0"></path>
                    <path d="M26.9879974,24.2579977 C27.7679973,25.0379976 27.7679973,26.2079975 26.9879974,26.9879974 C26.5979974,27.3779974 26.1299975,27.5339973 25.5839975,27.5339973 C25.1159976,27.5339973 24.5699976,27.3779974 24.1799977,26.9879974 L19.4219981,22.2299979 L14.6639986,26.9879974 C14.2739986,27.3779974 13.8059987,27.5339973 13.2599987,27.5339973 C12.7139988,27.5339973 12.2459988,27.3779974 11.8559989,26.9879974 C11.0759989,26.2079975 11.0759989,25.0379976 11.8559989,24.2579977 L16.6139984,19.4999981 L11.8559989,14.7419986 C11.0759989,13.9619987 11.0759989,12.7919988 11.8559989,12.0119988 C12.6359988,11.2319989 13.8059987,11.2319989 14.5859986,12.0119988 L19.3439981,16.7699984 L24.1019977,12.0119988 C24.8819976,11.2319989 26.0519975,11.2319989 26.8319974,12.0119988 C27.6119973,12.7919988 27.6119973,13.9619987 26.8319974,14.7419986 L22.0739979,19.4999981 L26.9879974,24.2579977 Z" id="Path" fill="#FFFFFF"></path>
                </g>
                <g id="Group-3" transform="translate(543.000000, 234.000000)">
                    <path d="M16.2239975,3.11999951 C7.61279881,3.11999951 0.623999903,10.1087984 0.623999903,18.7199971 C0.623999903,27.3311957 7.61279881,34.3199946 16.2239975,34.3199946 C24.8351961,34.3199946 31.823995,27.3311957 31.823995,18.7199971 C31.823995,10.1087984 24.8351961,3.11999951 16.2239975,3.11999951 Z" id="Shape" fill="#D0DEF4"></path>
                    <path d="M15.5999976,0 C6.98879891,0 0,6.98879891 0,15.5999976 C0,24.2111962 6.98879891,31.1999951 15.5999976,31.1999951 C24.2111962,31.1999951 31.1999951,24.2111962 31.1999951,15.5999976 C31.1999951,6.98879891 24.2111962,0 15.5999976,0 Z" id="Path" fill="#AFC2E0"></path>
                    <path d="M21.5903966,19.406397 C22.2143965,20.0303969 22.2143965,20.9663967 21.5903966,21.5903966 C21.2783967,21.9023966 20.9039967,22.0271966 20.4671968,22.0271966 C20.0927969,22.0271966 19.6559969,21.9023966 19.343997,21.5903966 L15.5375976,17.7839972 L11.7311982,21.5903966 C11.4191982,21.9023966 11.0447983,22.0271966 10.6079983,22.0271966 C10.1711984,22.0271966 9.79679847,21.9023966 9.48479852,21.5903966 C8.86079862,20.9663967 8.86079862,20.0303969 9.48479852,19.406397 L13.2911979,15.5999976 L9.48479852,11.7935982 C8.86079862,11.1695983 8.86079862,10.2335984 9.48479852,9.6095985 C10.1087984,8.9855986 11.0447983,8.9855986 11.6687982,9.6095985 L15.4751976,13.4159979 L19.281597,9.6095985 C19.9055969,8.9855986 20.8415968,8.9855986 21.4655967,9.6095985 C22.0895966,10.2335984 22.0895966,11.1695983 21.4655967,11.7935982 L17.6591972,15.5999976 L21.5903966,19.406397 Z" id="Path" fill="#FFFFFF"></path>
                </g>
                <g id="Group-3" transform="translate(573.000000, 293.000000)">
                    <path d="M36.5039979,7.0199996 C17.128799,7.0199996 1.40399992,22.7447987 1.40399992,42.1199976 C1.40399992,61.4951965 17.128799,77.2199956 36.5039979,77.2199956 C55.8791968,77.2199956 71.603996,61.4951965 71.603996,42.1199976 C71.603996,22.7447987 55.8791968,7.0199996 36.5039979,7.0199996 Z" id="Shape" fill="#D0DEF4"></path>
                    <path d="M35.099998,0 C15.7247991,0 0,15.7247991 0,35.099998 C0,54.4751969 15.7247991,70.199996 35.099998,70.199996 C54.4751969,70.199996 70.199996,54.4751969 70.199996,35.099998 C70.199996,15.7247991 54.4751969,0 35.099998,0 Z" id="Path" fill="#AFC2E0"></path>
                    <path d="M48.5783973,43.6643975 C49.9823972,45.0683975 49.9823972,47.1743973 48.5783973,48.5783973 C47.8763973,49.2803972 47.0339973,49.5611972 46.0511974,49.5611972 C45.2087974,49.5611972 44.2259975,49.2803972 43.5239975,48.5783973 L34.959598,40.0139977 L26.3951985,48.5783973 C25.6931985,49.2803972 24.8507986,49.5611972 23.8679987,49.5611972 C22.8851987,49.5611972 22.0427988,49.2803972 21.3407988,48.5783973 C19.9367989,47.1743973 19.9367989,45.0683975 21.3407988,43.6643975 L29.9051983,35.099998 L21.3407988,26.5355985 C19.9367989,25.1315986 19.9367989,23.0255987 21.3407988,21.6215988 C22.7447987,20.2175989 24.8507986,20.2175989 26.2547985,21.6215988 L34.819198,30.1859983 L43.3835975,21.6215988 C44.7875975,20.2175989 46.8935973,20.2175989 48.2975973,21.6215988 C49.7015972,23.0255987 49.7015972,25.1315986 48.2975973,26.5355985 L39.7331978,35.099998 L48.5783973,43.6643975 Z" id="Path" fill="#FFFFFF"></path>
                </g>
                <g id="Group-3" transform="translate(495.000000, 446.000000)">
                    <path d="M14.1959984,2.72999969 C6.66119925,2.72999969 0.545999938,8.845199 0.545999938,16.3799981 C0.545999938,23.9147973 6.66119925,30.0299966 14.1959984,30.0299966 C21.7307975,30.0299966 27.8459968,23.9147973 27.8459968,16.3799981 C27.8459968,8.845199 21.7307975,2.72999969 14.1959984,2.72999969 Z" id="Shape" fill="#D0DEF4"></path>
                    <path d="M13.6499985,0 C6.11519931,0 0,6.11519931 0,13.6499985 C0,21.1847976 6.11519931,27.2999969 13.6499985,27.2999969 C21.1847976,27.2999969 27.2999969,21.1847976 27.2999969,13.6499985 C27.2999969,6.11519931 21.1847976,0 13.6499985,0 Z" id="Path" fill="#AFC2E0"></path>
                    <path d="M18.8915979,16.9805981 C19.4375978,17.526598 19.4375978,18.3455979 18.8915979,18.8915979 C18.6185979,19.1645978 18.2909979,19.2737978 17.908798,19.2737978 C17.581198,19.2737978 17.1989981,19.1645978 16.9259981,18.8915979 L13.5953985,15.5609982 L10.2647988,18.8915979 C9.99179887,19.1645978 9.6641989,19.2737978 9.28199895,19.2737978 C8.89979899,19.2737978 8.57219903,19.1645978 8.29919906,18.8915979 C7.75319912,18.3455979 7.75319912,17.526598 8.29919906,16.9805981 L11.6297987,13.6499985 L8.29919906,10.3193988 C7.75319912,9.77339889 7.75319912,8.95439899 8.29919906,8.40839905 C8.845199,7.86239911 9.6641989,7.86239911 10.2101988,8.40839905 L13.5407985,11.7389987 L16.8713981,8.40839905 C17.417398,7.86239911 18.2363979,7.86239911 18.7823979,8.40839905 C19.3283978,8.95439899 19.3283978,9.77339889 18.7823979,10.3193988 L15.4517982,13.6499985 L18.8915979,16.9805981 Z" id="Path" fill="#FFFFFF"></path>
                </g>
                <g id="Group-3" transform="translate(488.000000, 319.000000)">
                    <path d="M11.356798,2.18399962 C5.32895908,2.18399962 0.436799924,7.07615878 0.436799924,13.1039977 C0.436799924,19.1318367 5.32895908,24.0239958 11.356798,24.0239958 C17.384637,24.0239958 22.2767961,19.1318367 22.2767961,13.1039977 C22.2767961,7.07615878 17.384637,2.18399962 11.356798,2.18399962 Z" id="Shape" fill="#D0DEF4"></path>
                    <path d="M10.9199981,0 C4.89215915,0 0,4.89215915 0,10.9199981 C0,16.9478371 4.89215915,21.8399962 10.9199981,21.8399962 C16.9478371,21.8399962 21.8399962,16.9478371 21.8399962,10.9199981 C21.8399962,4.89215915 16.9478371,0 10.9199981,0 Z" id="Path" fill="#AFC2E0"></path>
                    <path d="M15.1132774,13.5844777 C15.5500773,14.0212776 15.5500773,14.6764775 15.1132774,15.1132774 C14.8948774,15.3316773 14.6327975,15.4190373 14.3270375,15.4190373 C14.0649576,15.4190373 13.7591976,15.3316773 13.5407977,15.1132774 L10.8763181,12.4487978 L8.21183858,15.1132774 C7.99343862,15.3316773 7.73135866,15.4190373 7.42559872,15.4190373 C7.11983877,15.4190373 6.85775881,15.3316773 6.63935885,15.1132774 C6.20255893,14.6764775 6.20255893,14.0212776 6.63935885,13.5844777 L9.30383839,10.9199981 L6.63935885,8.25551857 C6.20255893,7.81871865 6.20255893,7.16351876 6.63935885,6.72671884 C7.07615878,6.28991891 7.73135866,6.28991891 8.16815859,6.72671884 L10.8326381,9.39119838 L13.4971177,6.72671884 C13.9339176,6.28991891 14.5891175,6.28991891 15.0259174,6.72671884 C15.4627173,7.16351876 15.4627173,7.81871865 15.0259174,8.25551857 L12.3614379,10.9199981 L15.1132774,13.5844777 Z" id="Path" fill="#FFFFFF"></path>
                </g>
                <g id="Group-3" transform="translate(605.000000, 416.000000)">
                    <path d="M14.1959984,2.72999969 C6.66119925,2.72999969 0.545999938,8.845199 0.545999938,16.3799981 C0.545999938,23.9147973 6.66119925,30.0299966 14.1959984,30.0299966 C21.7307975,30.0299966 27.8459968,23.9147973 27.8459968,16.3799981 C27.8459968,8.845199 21.7307975,2.72999969 14.1959984,2.72999969 Z" id="Shape" fill="#D0DEF4"></path>
                    <path d="M13.6499985,0 C6.11519931,0 0,6.11519931 0,13.6499985 C0,21.1847976 6.11519931,27.2999969 13.6499985,27.2999969 C21.1847976,27.2999969 27.2999969,21.1847976 27.2999969,13.6499985 C27.2999969,6.11519931 21.1847976,0 13.6499985,0 Z" id="Path" fill="#AFC2E0"></path>
                    <path d="M18.8915979,16.9805981 C19.4375978,17.526598 19.4375978,18.3455979 18.8915979,18.8915979 C18.6185979,19.1645978 18.2909979,19.2737978 17.908798,19.2737978 C17.581198,19.2737978 17.1989981,19.1645978 16.9259981,18.8915979 L13.5953985,15.5609982 L10.2647988,18.8915979 C9.99179887,19.1645978 9.6641989,19.2737978 9.28199895,19.2737978 C8.89979899,19.2737978 8.57219903,19.1645978 8.29919906,18.8915979 C7.75319912,18.3455979 7.75319912,17.526598 8.29919906,16.9805981 L11.6297987,13.6499985 L8.29919906,10.3193988 C7.75319912,9.77339889 7.75319912,8.95439899 8.29919906,8.40839905 C8.845199,7.86239911 9.6641989,7.86239911 10.2101988,8.40839905 L13.5407985,11.7389987 L16.8713981,8.40839905 C17.417398,7.86239911 18.2363979,7.86239911 18.7823979,8.40839905 C19.3283978,8.95439899 19.3283978,9.77339889 18.7823979,10.3193988 L15.4517982,13.6499985 L18.8915979,16.9805981 Z" id="Path" fill="#FFFFFF"></path>
                </g>
                <path d="M737.2,398.24 L694.56,486.24 C690.424047,494.833484 683.108574,501.481957 674.16,504.78 C632.28,520.12 504.9,558.5 394.04,506.36 C385.168657,502.151357 378.359098,494.556358 375.14,485.28 L278.46,209.42 C299.58,195.86 322.46,184.56 337.8,164.92 C355.92,141.72 360.32,110.8 373.8,84.58 C387.28,58.36 410.96,37.5 438.32,25.92 C443.84,28.8 449.28,31.82 454.66,34.92 C474.16,46.22 493.14,63.62 514.9,70.42 C541.02,78.42 570.3,75.58 597.02,83.76 C625.62,92.5 653.02,108.66 669.52,133.56 C707.94,191.32 677.18,271.56 700.94,336.72 C709.1,358.98 723.36,378.58 737.2,398.24 Z" id="Path" fill="url(#linearGradient-17)"></path>
                <rect id="Rectangle" fill="#AFC2E0" opacity="0.24" transform="translate(437.500000, 144.000000) rotate(-180.000000) translate(-437.500000, -144.000000) " x="356" y="94" width="163" height="100" rx="12.7199992"></rect>
                <g id="Group-2" transform="translate(311.000000, 25.000000)">
                    <path d="M148.898755,132 L21.1092319,132 C9.45951218,131.986821 0.0176036039,122.559792 0,110.924035 L0,21.0839427 C0.0132043561,9.44506993 9.45639883,0.0131885371 21.1092319,0 L148.898755,0 C160.548469,0.0175825146 169.986805,9.44817955 170,21.0839427 L170,110.924035 C169.986796,122.558502 160.547177,131.986811 148.898755,132 Z M21.1092319,3.15102435 C11.1969254,3.15982083 3.16361088,11.1835113 3.15480385,21.0839427 L3.15480385,110.924035 C3.16801221,120.821351 11.2000397,128.840187 21.1092319,128.848976 L148.898755,128.848976 C158.804828,128.835792 166.831997,120.81824 166.845196,110.924035 L166.845196,21.0839427 C166.836397,11.1866219 158.807942,3.16421689 148.898755,3.15102435 L21.1092319,3.15102435 Z" id="Shape" fill="#AFC2E0"></path>
                    <rect id="Rectangle" fill="#D0DEF4" x="2" y="0" width="167" height="129" rx="19.5600003"></rect>
                    <g id="Group" transform="translate(22.000000, 16.000000)" fill="#FFFFFF">
                        <rect id="Rectangle" x="0.768000011" y="0.320000005" width="42.7200006" height="3.13600005"></rect>
                        <rect id="Rectangle" x="0.768000011" y="6.3840001" width="26.0720004" height="2.94400004"></rect>
                        <rect id="Rectangle" x="37.3600006" y="6.3840001" width="82.0480012" height="2.96000004"></rect>
                        <rect id="Rectangle" x="14.3280002" y="12.4560002" width="35.8560005" height="3.10400005"></rect>
                        <rect id="Rectangle" x="25.8400004" y="18.5200003" width="42.7200006" height="3.13600005"></rect>
                        <rect id="Rectangle" x="71.3440011" y="18.5200003" width="35.8080005" height="3.48000005"></rect>
                        <rect id="Rectangle" x="25.7760004" y="24.5840004" width="32.9840005" height="2.94400004"></rect>
                        <rect id="Rectangle" x="61.9280009" y="24.5840004" width="68.064001" height="3.25600005"></rect>
                        <rect id="Rectangle" x="0.768000011" y="32.7840005" width="42.7200006" height="3.13600005"></rect>
                        <rect id="Rectangle" x="0.768000011" y="38.8480006" width="26.0720004" height="2.94400004"></rect>
                        <rect id="Rectangle" x="37.3600006" y="38.8480006" width="82.0480012" height="2.96000004"></rect>
                        <rect id="Rectangle" x="14.3280002" y="44.9120007" width="35.8560005" height="3.10400005"></rect>
                        <rect id="Rectangle" x="25.8400004" y="50.9840008" width="42.7200006" height="3.13600005"></rect>
                        <rect id="Rectangle" x="71.3440011" y="50.9840008" width="35.8080005" height="3.48000005"></rect>
                        <rect id="Rectangle" x="25.7760004" y="57.0480009" width="32.9840005" height="2.94400004"></rect>
                        <rect id="Rectangle" x="61.9280009" y="57.0480009" width="68.064001" height="3.25600005"></rect>
                        <rect id="Rectangle" x="0.768000011" y="65.256001" width="42.7200006" height="3.13600005"></rect>
                        <rect id="Rectangle" x="0.768000011" y="71.3120011" width="26.0720004" height="2.94400004"></rect>
                        <rect id="Rectangle" x="37.3600006" y="71.3120011" width="82.0480012" height="2.96000004"></rect>
                        <rect id="Rectangle" x="14.3280002" y="77.3760012" width="35.8560005" height="3.10400005"></rect>
                        <rect id="Rectangle" x="25.8400004" y="83.4400012" width="42.7200006" height="3.13600005"></rect>
                        <rect id="Rectangle" x="71.3440011" y="83.4400012" width="35.8080005" height="3.48000005"></rect>
                        <rect id="Rectangle" x="25.7760004" y="89.5200013" width="32.9840005" height="2.94400004"></rect>
                        <rect id="Rectangle" x="61.9280009" y="89.5200013" width="68.064001" height="3.25600005"></rect>
                    </g>
                </g>
                <rect id="Rectangle" fill="#AFC2E0" opacity="0.24" transform="translate(99.000000, 392.000000) rotate(-180.000000) translate(-99.000000, -392.000000) " x="42" y="357" width="114" height="70" rx="8.90400008"></rect>
                <g id="Group-2" transform="translate(0.000000, 295.000000)">
                    <path d="M104.229136,92.4000063 L14.7764633,92.4000063 C6.62165897,92.3907809 0.0123225236,85.7918602 0,77.6468295 L0,14.7587609 C0.00924304989,6.6115494 6.61947963,0.00923197659 14.7764633,0 L104.229136,0 C112.383936,0.012307761 118.990772,6.61372614 119,14.7587609 L119,77.6468295 C118.990765,85.790957 112.383032,92.3907743 104.229136,92.4000063 Z M14.7764633,2.2057172 C7.83784829,2.21187473 2.21452777,7.82845844 2.20836285,14.7587609 L2.20836285,77.6468295 C2.2176087,84.5749511 7.8400283,90.1881369 14.7764633,90.1942891 L104.229136,90.1942891 C111.163387,90.1850606 116.782406,84.5727739 116.791645,77.6468295 L116.791645,14.7587609 C116.785486,7.83063584 111.165567,2.21495197 104.229136,2.2057172 L14.7764633,2.2057172 Z" id="Shape" fill="#AFC2E0"></path>
                    <rect id="Rectangle" fill="#D0DEF4" x="1.4000001" y="0" width="116.900008" height="90.3000062" rx="13.6920011"></rect>
                    <g id="Group" transform="translate(15.400001, 11.200001)" fill="#FFFFFF">
                        <rect id="Rectangle" x="0.537600045" y="0.224000019" width="29.9040025" height="2.19520018"></rect>
                        <rect id="Rectangle" x="0.537600045" y="4.46880037" width="18.2504015" height="2.06080017"></rect>
                        <rect id="Rectangle" x="26.1520022" y="4.46880037" width="57.4336048" height="2.07200017"></rect>
                        <rect id="Rectangle" x="10.0296008" y="8.71920072" width="25.0992021" height="2.17280018"></rect>
                        <rect id="Rectangle" x="18.0880015" y="12.9640011" width="29.9040025" height="2.19520018"></rect>
                        <rect id="Rectangle" x="49.9408041" y="12.9640011" width="25.0656021" height="2.4360002"></rect>
                        <rect id="Rectangle" x="18.0432015" y="17.2088014" width="23.0888019" height="2.06080017"></rect>
                        <rect id="Rectangle" x="43.3496036" y="17.2088014" width="47.644804" height="2.27920019"></rect>
                        <rect id="Rectangle" x="0.537600045" y="22.9488019" width="29.9040025" height="2.19520018"></rect>
                        <rect id="Rectangle" x="0.537600045" y="27.1936023" width="18.2504015" height="2.06080017"></rect>
                        <rect id="Rectangle" x="26.1520022" y="27.1936023" width="57.4336048" height="2.07200017"></rect>
                        <rect id="Rectangle" x="10.0296008" y="31.4384026" width="25.0992021" height="2.17280018"></rect>
                        <rect id="Rectangle" x="18.0880015" y="35.688803" width="29.9040025" height="2.19520018"></rect>
                        <rect id="Rectangle" x="49.9408041" y="35.688803" width="25.0656021" height="2.4360002"></rect>
                        <rect id="Rectangle" x="18.0432015" y="39.9336033" width="23.0888019" height="2.06080017"></rect>
                        <rect id="Rectangle" x="43.3496036" y="39.9336033" width="47.644804" height="2.27920019"></rect>
                        <rect id="Rectangle" x="0.537600045" y="45.6792038" width="29.9040025" height="2.19520018"></rect>
                        <rect id="Rectangle" x="0.537600045" y="49.9184041" width="18.2504015" height="2.06080017"></rect>
                        <rect id="Rectangle" x="26.1520022" y="49.9184041" width="57.4336048" height="2.07200017"></rect>
                        <rect id="Rectangle" x="10.0296008" y="54.1632045" width="25.0992021" height="2.17280018"></rect>
                        <rect id="Rectangle" x="18.0880015" y="58.4080048" width="29.9040025" height="2.19520018"></rect>
                        <rect id="Rectangle" x="49.9408041" y="58.4080048" width="25.0656021" height="2.4360002"></rect>
                        <rect id="Rectangle" x="18.0432015" y="62.6640052" width="23.0888019" height="2.06080017"></rect>
                        <rect id="Rectangle" x="43.3496036" y="62.6640052" width="47.644804" height="2.27920019"></rect>
                    </g>
                </g>
            </g>
        </g>
    </g>
</svg>